<?xml version="1.0" encoding="UTF-8" standalone="no"?>
<svg
   version="1.1"
   id="Layer_1"
   x="0px"
   y="0px"
   width="100%"
   viewBox="0 0 1124 179"
   enable-background="new 0 0 1124 179"
   xml:space="preserve"
   sodipodi:docname="beertracker_text.svg"
   inkscape:version="1.2.2 (b0a84865, 2022-12-01)"
   xmlns:inkscape="http://www.inkscape.org/namespaces/inkscape"
   xmlns:sodipodi="http://sodipodi.sourceforge.net/DTD/sodipodi-0.dtd"
   xmlns="http://www.w3.org/2000/svg"
   xmlns:svg="http://www.w3.org/2000/svg"><defs
   id="defs247" /><sodipodi:namedview
   id="namedview245"
   pagecolor="#505050"
   bordercolor="#ffffff"
   borderopacity="1"
   inkscape:showpageshadow="0"
   inkscape:pageopacity="0"
   inkscape:pagecheckerboard="1"
   inkscape:deskcolor="#505050"
   showgrid="false"
   inkscape:zoom="1.0756228"
   inkscape:cx="359.79156"
   inkscape:cy="193.37634"
   inkscape:window-width="1309"
   inkscape:window-height="456"
   inkscape:window-x="0"
   inkscape:window-y="37"
   inkscape:window-maximized="0"
   inkscape:current-layer="Layer_1" />

<path
   fill="#E3B861"
   opacity="1.000000"
   stroke="none"
   d=" M25.917625,39.947720   C26.499971,33.616722 30.372869,30.134399 36.780037,30.127453   C47.609951,30.115713 58.440060,30.113911 69.269684,30.044525   C83.369675,29.954187 96.431412,37.737385 99.432068,48.993427   C102.370888,60.017475 100.272789,70.237770 91.999481,78.685249   C95.025093,81.451355 98.198410,84.073494 101.052383,87.006378   C109.229218,95.409302 108.924675,115.168282 101.800171,123.628845   C98.505707,127.541122 92.922256,128.823730 89.114487,126.514427   C83.865349,123.330978 82.425995,120.225891 84.739311,112.636292   C87.805489,102.576645 85.841530,97.250969 77.349991,93.894882   C74.538712,92.783798 71.410843,92.079987 68.396362,91.956680   C61.576286,91.677719 54.736683,91.876122 47.131927,92.214012   C46.266674,104.382523 46.174515,116.217400 46.082355,128.052277   C45.530289,134.153442 41.612446,137.946381 35.867138,137.941788   C30.323980,137.937363 26.702915,134.586288 26.003515,127.976212   C25.956430,98.057999 25.937027,69.002861 25.917625,39.947720  M70.280281,48.302254   C63.304718,48.197018 56.325558,47.950222 49.357178,48.127441   C48.210548,48.156605 46.189522,50.005634 46.140781,51.084454   C45.840782,57.724445 45.887608,64.388138 46.103642,71.034698   C46.135788,72.023697 47.667728,73.794777 48.508869,73.796600   C55.950077,73.812714 63.391972,73.510925 71.500633,72.962410   C75.762314,70.440041 80.549126,68.381058 81.015266,62.440002   C81.511284,56.118282 78.840202,50.829868 70.280281,48.302254  z"
   id="path168" />
<path
   fill="#E3B861"
   opacity="1.000000"
   stroke="none"
   d=" M535.082275,129.052490   C533.855164,135.165161 529.969604,138.343796 524.182434,137.969193   C518.827515,137.622589 515.066101,133.495056 515.055359,127.628365   C515.001526,98.316322 515.071228,69.003914 514.943359,39.692307   C514.919678,34.262997 519.266235,30.231516 525.056091,30.230598   C539.472839,30.228315 554.078064,29.415270 568.252319,31.428680   C581.847412,33.359810 592.300049,43.553188 594.005493,58.813389   C595.054504,68.199539 594.502686,76.985542 588.424194,84.690979   C586.281738,87.406975 584.473083,90.846558 581.655029,92.442818   C578.702454,94.115250 579.351318,95.650993 579.947388,97.775566   C581.916260,104.793571 580.655945,108.627304 575.541199,111.119896   C570.956421,113.354225 563.804443,111.833519 561.517639,106.693573   C558.696167,100.351830 554.362976,99.422989 548.471985,99.940254   C544.670349,100.274048 540.816162,100.008705 536.188843,100.291962   C535.288818,110.065529 535.185547,119.559006 535.082275,129.052490  M535.390137,50.575081   C535.260742,59.011528 535.064087,67.447868 535.050354,75.884499   C535.047119,77.937126 535.645203,79.990730 536.905762,82.119850   C542.735718,82.124107 548.569153,81.998589 554.394836,82.158348   C568.649597,82.549240 574.977783,75.499130 573.124390,61.153183   C572.549683,56.704346 567.203125,51.196381 562.799255,50.987541   C553.890625,50.565075 544.971130,50.369293 535.390137,50.575081  z"
   id="path170" />
<path
   fill="#E2B761"
   opacity="1.000000"
   stroke="none"
   d=" M344.084167,130.142242   C342.388855,135.973389 337.931915,138.938904 332.294647,137.986603   C328.184235,137.292221 324.135956,131.915939 324.132446,127.104141   C324.111298,98.136742 324.099823,69.169334 324.079041,40.201935   C324.075165,34.834595 328.638794,30.240400 334.513214,30.164654   C346.164551,30.014425 357.855621,29.475582 369.462646,30.192064   C385.796722,31.200335 396.882416,37.001976 402.248322,53.654198   C407.129395,68.801804 401.170776,86.102821 388.935150,94.136238   C389.236298,98.301010 390.539520,102.290466 389.441437,105.443680   C388.512177,108.112152 385.117157,110.772156 382.248932,111.710152   C378.236938,113.022217 373.400574,111.971672 371.555145,107.742615   C368.476410,100.687332 363.468658,99.012932 356.490204,99.926682   C353.052643,100.376793 349.508118,100.010193 345.223846,100.299103   C344.318512,110.437439 344.201324,120.289841 344.084167,130.142242  M344.434845,50.586918   C344.291504,60.014412 344.114014,69.441681 344.053162,78.869713   C344.046478,79.909203 344.707794,80.953011 345.983063,82.110352   C352.648560,82.116898 359.314056,82.123962 365.979553,82.129860   C377.725281,82.140259 381.494232,76.785561 382.848145,67.308281   C383.826355,60.460781 379.960419,51.588676 371.840576,51.022701   C362.944519,50.402618 354.007690,50.367550 344.434845,50.586918  z"
   id="path172" />
<path
   fill="#E3B861"
   opacity="1.000000"
   stroke="none"
   d=" M1029.917480,38.858372   C1031.198364,32.760857 1034.339966,30.146297 1040.425537,30.130035   C1051.743896,30.099792 1063.080322,29.656902 1074.376587,30.142725   C1093.553345,30.967466 1108.562134,41.666546 1108.999023,63.394943   C1109.245361,75.646324 1105.749268,86.000214 1095.311401,93.393219   C1094.513306,93.958511 1094.831177,96.406944 1094.982056,97.945511   C1095.392822,102.130959 1096.584106,106.827278 1092.609619,109.618713   C1088.075562,112.803169 1083.880981,113.375877 1079.485596,109.962395   C1076.936035,107.982353 1075.306519,104.853310 1073.067627,102.421127   C1072.108765,101.379509 1070.676636,100.158195 1069.418701,100.111137   C1063.133789,99.876030 1056.835449,100.003578 1050.001953,100.003578   C1050.001953,108.597794 1050.054443,116.863380 1049.981201,125.127846   C1049.940430,129.720001 1049.743164,134.254425 1044.708252,136.705017   C1038.272827,139.837387 1032.146851,137.059937 1030.005981,129.034988   C1029.958130,98.412071 1029.937744,68.635223 1029.917480,38.858372  M1085.118408,55.627586   C1083.187012,54.129158 1081.364746,51.524616 1079.305420,51.321148   C1069.680908,50.370232 1059.990845,50.081493 1050.300049,49.554771   C1050.300049,61.018120 1050.300049,71.429268 1050.300049,82.123192   C1058.403198,82.123192 1066.265869,82.668343 1073.994263,81.886070   C1077.685425,81.512451 1082.072266,79.450294 1084.479492,76.697365   C1089.851440,70.554184 1088.939209,63.236359 1085.118408,55.627586  z"
   id="path174" />
<path
   fill="#E0B661"
   opacity="1.000000"
   stroke="none"
   d=" M997.294556,77.861313   C1000.063843,81.554703 1000.670227,85.418274 998.402893,88.860527   C996.351074,91.975784 993.479004,94.135963 988.985352,93.999016   C977.524719,93.649727 966.046387,93.882690 954.226196,93.882690   C954.226196,101.523193 954.226196,108.932396 954.226196,117.124489   C957.278564,117.124489 960.524109,117.124596 963.769714,117.124466   C973.926575,117.124077 984.083374,117.123581 994.240234,117.123123   C1001.163696,117.122810 1005.831055,121.546379 1005.950867,128.222015   C1006.046326,133.540909 1000.677490,137.887680 994.102722,137.881058   C977.785217,137.864624 961.462524,137.638657 945.152588,137.989578   C938.356506,138.135803 932.956909,133.139252 933.019653,125.964874   C933.265686,97.827881 933.120789,69.687347 933.088501,41.548161   C933.080444,34.551716 937.463684,30.128853 944.574829,30.122643   C951.068542,30.116972 957.562500,30.155249 964.055847,30.106104   C970.024536,30.060928 974.670410,34.659416 974.929382,40.972363   C975.132874,45.931107 970.028259,50.779747 964.408020,50.889252   C961.105896,50.953587 957.801453,50.900986 954.188354,50.900986   C954.188354,58.596909 954.188354,66.005119 954.188354,74.124489   C959.853027,74.124489 965.608582,74.124756 971.364197,74.124420   C977.025391,74.124084 982.700806,74.366196 988.342651,74.035408   C991.988342,73.821640 994.764038,74.838020 997.294556,77.861313  z"
   id="path176" />
<path
   fill="#E2B761"
   opacity="1.000000"
   stroke="none"
   d=" M249.005280,100.084450   C249.005280,105.880463 249.005280,111.188095 249.005280,117.128738   C257.481415,117.128738 265.745270,117.132339 274.009125,117.127426   C279.174377,117.124359 284.339752,117.127579 289.504852,117.093399   C295.656250,117.052689 300.951233,122.068764 300.922760,127.949219   C300.897064,133.257233 295.576965,137.901703 289.714417,137.889084   C272.885010,137.852859 256.055328,137.841232 239.226013,137.893127   C231.953506,137.915558 228.011749,134.292145 228.005600,127.162628   C227.980789,98.335876 228.135162,69.507881 227.888916,40.683208   C227.832520,34.082500 232.379425,30.467665 238.073135,30.200438   C245.389389,29.857063 252.734787,29.903484 260.060638,30.076622   C264.960876,30.192434 270.023590,36.068897 269.923035,41.010326   C269.834259,45.371521 264.278961,50.754211 259.588867,50.895031   C256.274597,50.994545 252.954910,50.914291 249.323425,50.914291   C249.323425,58.521290 249.323425,65.946754 249.323425,74.128738   C251.846680,74.128738 254.597366,74.129196 257.348053,74.128654   C266.179382,74.126915 275.010895,74.161736 283.841949,74.110123   C289.957458,74.074379 293.943268,77.850845 293.992676,83.875473   C294.043091,90.017952 290.211639,93.853951 283.899902,93.870239   C272.440155,93.899811 260.980255,93.878624 249.005280,93.878624   C249.005280,96.032181 249.005280,97.814125 249.005280,100.084450  z"
   id="path178" />
<path
   fill="#E2B761"
   opacity="1.000000"
   stroke="none"
   d=" M131.916275,38.945854   C133.121399,32.923897 136.424591,30.014505 142.315384,30.151594   C149.754700,30.324722 157.210098,30.449072 164.619568,31.064163   C170.723282,31.570860 173.402512,34.788174 172.995209,40.004238   C172.447556,47.017723 169.068008,50.790466 163.180374,50.877552   C159.689484,50.929188 156.197205,50.887001 152.355759,50.887001   C152.355759,58.573231 152.355759,66.114944 152.355759,74.113243   C164.054138,74.113243 175.665329,74.292496 187.267105,74.039841   C193.335175,73.907684 198.048630,78.358391 197.853607,84.102638   C197.669662,89.519875 194.413528,93.949654 187.131882,93.900352   C175.651978,93.822624 164.171158,93.879677 152.348465,93.879677   C152.348465,101.599571 152.348465,109.139252 152.348465,117.123154   C165.909744,117.123154 179.351959,117.161804 192.793808,117.107414   C199.883408,117.078728 203.991776,120.752335 204.001694,127.344131   C204.011703,134.002716 199.904251,137.882584 192.948044,137.878525   C176.129471,137.868683 159.310837,137.878738 142.492294,137.909225   C136.841858,137.919479 133.641632,135.483551 132.000183,128.960205   C131.956284,98.391884 131.936279,68.668869 131.916275,38.945854  z"
   id="path180" />
<path
   fill="#E2B862"
   opacity="1.000000"
   stroke="none"
   d=" M648.074585,111.869003   C645.920532,111.869080 644.105774,111.449219 642.626526,111.974426   C640.731506,112.647278 638.369080,113.676514 637.500244,115.260803   C634.615356,120.521347 632.394287,126.140800 629.758484,131.544479   C626.988770,137.222839 621.493896,139.454651 616.630127,137.193787   C609.085999,133.687012 608.425781,128.113098 611.107117,122.089783   C616.460999,110.063408 622.498230,98.342896 628.156189,86.449921   C635.824829,70.330757 643.338928,54.137814 651.060852,38.044380   C653.136230,33.719013 655.795654,30.012487 661.573669,30.029949   C667.189270,30.046925 669.899658,33.686817 671.888977,37.831749   C681.423950,57.699760 690.792908,77.648521 700.071106,97.638107   C703.183044,104.342453 697.944397,111.924271 690.537292,111.907990   C676.545898,111.877235 662.554321,111.880119 648.074585,111.869003  M652.771362,94.130981   C660.136353,94.130981 667.501343,94.130981 675.477478,94.130981   C670.591492,83.838837 666.158691,74.501442 661.522583,64.735573   C656.844116,74.657776 652.373718,84.138885 647.749573,93.945915   C649.539429,94.026672 650.694946,94.078812 652.771362,94.130981  z"
   id="path182" />
<path
   fill="#E3B962"
   opacity="1.000000"
   stroke="none"
   d=" M859.995972,65.856316   C863.129517,62.279045 866.168396,58.612930 869.422668,55.149124   C872.799866,51.554508 877.537598,50.829666 881.536987,52.531086   C884.119751,53.629837 886.678772,57.256001 887.226746,60.134350   C888.259094,65.558578 885.447388,70.085716 881.057983,73.529167   C877.862305,76.036156 874.796448,78.708702 871.398376,81.535721   C872.754333,83.054886 873.666748,84.180573 874.684326,85.201416   C886.007080,96.560852 897.365234,107.885147 908.671082,119.261353   C912.945618,123.562576 913.006104,131.427750 908.911804,135.534225   C905.147766,139.309433 898.211365,138.642975 893.711426,134.024887   C884.125244,124.186958 874.530457,114.356964 865.013611,104.452263   C863.145752,102.508278 861.613464,100.241882 858.976929,96.932396   C858.976929,107.310036 859.008667,116.200745 858.966492,125.091103   C858.935120,131.720917 856.488464,135.538620 851.325195,137.242767   C844.621155,139.455414 838.084412,134.927200 838.070374,127.904526   C838.012451,98.925941 838.000488,69.947220 838.022705,40.968582   C838.026855,35.523209 841.610718,31.241093 846.810669,30.120028   C850.782288,29.263790 855.810120,32.410446 857.994446,37.958542   C858.016052,47.019062 857.954468,55.224583 858.092407,63.426777   C858.106262,64.247078 859.332458,65.046974 859.995972,65.856316  z"
   id="path184" />
<path
   fill="#E3B862"
   opacity="1.000000"
   stroke="none"
   d=" M730.256592,52.276814   C740.345947,38.355888 753.017944,29.359417 770.251892,28.045254   C774.060608,27.754818 777.910706,28.042549 781.740723,27.989758   C792.730164,27.838287 802.571411,31.369732 811.700439,37.232323   C818.140564,41.368099 818.381836,47.338634 816.000610,51.830574   C813.245361,57.028278 809.483398,57.727413 802.688171,55.360741   C794.948608,52.665112 787.168335,49.351299 779.154724,48.382294   C770.998291,47.396023 762.924133,50.274635 756.114319,55.379658   C744.766846,63.886398 740.900940,75.546005 741.875122,89.318581   C742.659424,100.407104 753.593628,114.145866 765.422852,117.939911   C770.619263,119.606583 776.083374,120.419579 781.377075,121.806648   C787.752502,123.477180 791.005127,127.263641 790.437256,132.009476   C789.802368,137.315277 785.374207,140.867233 778.884705,140.980286   C765.159668,141.219437 752.765564,136.748413 742.178406,128.439407   C730.599792,119.352287 723.148743,107.173386 721.138306,92.388382   C719.201721,78.146393 722.027649,64.710121 730.256592,52.276814  z"
   id="path186" />
<path
   fill="#E1B761"
   opacity="1.000000"
   stroke="none"
   d=" M466.084869,129.143112   C464.682465,135.154892 459.996674,138.726089 454.514679,137.961090   C449.643616,137.281357 446.102600,132.433762 446.110199,126.711166   C446.142181,102.555862 446.127167,78.400497 446.121002,54.245159   C446.120758,53.277420 446.035522,52.309708 445.967773,50.872906   C438.745392,50.872906 431.798828,50.861629 424.852295,50.876282   C418.715607,50.889225 413.042786,45.832844 413.147156,40.413441   C413.260712,34.514626 418.428314,30.072397 424.972198,30.107601   C434.800629,30.160475 444.635468,29.918243 454.456329,30.196640   C461.719604,30.402533 464.474823,31.780548 466.020538,38.962494   C466.046143,69.587448 466.065521,99.365280 466.084869,129.143112  z"
   id="path188" />
<path
   fill="#FDFCF9"
   opacity="1.000000"
   stroke="none"
   d=" M479.194824,35.593796   C485.931335,28.495440 491.290710,28.100376 496.493561,33.963940   C499.627441,37.495785 499.939667,42.540306 497.249451,46.176117   C493.821442,50.809044 488.728210,52.214607 483.800568,49.887638   C479.969025,48.078274 477.334595,42.433567 478.386993,38.263432   C478.582550,37.488640 478.829498,36.726818 479.194824,35.593796  z"
   id="path190" />
<path
   fill="#FDFCFA"
   opacity="1.000000"
   stroke="none"
   d=" M183.943253,44.669273   C182.067169,37.914436 184.249832,33.014828 189.915436,30.641020   C194.324738,28.793585 200.547653,30.891584 202.641907,35.382126   C205.228928,40.929195 204.043900,45.785648 199.429794,48.827774   C194.023621,52.392117 188.847855,52.271332 183.943253,44.669273  z"
   id="path192" />
<path
   fill="#FDFCF9"
   opacity="1.000000"
   stroke="none"
   d=" M72.639465,135.823700   C66.190552,139.451797 61.016552,138.313492 57.368378,132.781387   C54.641438,128.646240 56.154209,122.396210 60.738243,118.858696   C64.922653,115.629578 70.273842,116.417015 74.306702,120.855362   C78.224792,125.167366 77.723747,130.552002 72.639465,135.823700  z"
   id="path194" />
<path
   fill="#FDFCF9"
   opacity="1.000000"
   stroke="none"
   d=" M299.058044,44.664703   C293.694855,54.281311 283.473877,51.486324 280.256287,44.783768   C278.107635,40.307915 279.569763,36.950680 282.050751,33.579155   C284.579834,30.142298 288.309662,29.195541 292.152130,30.250713   C296.443237,31.429079 299.457977,34.391212 299.925751,39.077095   C300.094635,40.769176 299.438812,42.543583 299.058044,44.664703  z"
   id="path196" />
<path
   fill="#FDFCFA"
   opacity="1.000000"
   stroke="none"
   d=" M815.149780,128.276703   C806.750122,132.257324 801.339111,130.454285 798.991821,123.251068   C797.422424,118.435112 799.144348,113.891975 803.555481,111.210258   C807.560181,108.775597 813.273560,109.634628 816.554016,113.164436   C819.506714,116.341759 819.978943,122.195419 817.500183,125.869171   C816.953491,126.679512 816.130249,127.303314 815.149780,128.276703  z"
   id="path198" />
<path
   fill="#FDFCF9"
   opacity="1.000000"
   stroke="none"
   d=" M992.620544,30.220224   C1002.240723,28.647270 1007.553894,37.772102 1004.934509,44.168331   C1003.243225,48.298435 998.458069,51.365379 994.024902,50.921379   C990.003113,50.518581 985.820068,46.646397 985.030945,42.595867   C984.090881,37.770657 986.152466,33.497276 990.512695,31.234207   C991.086487,30.936399 991.661255,30.640667 992.620544,30.220224  z"
   id="path200" />
<path
   fill="#FDFCF9"
   opacity="1.000000"
   stroke="none"
   d=" M893.603638,31.189501   C898.486023,29.065254 902.799988,29.775261 906.249023,33.001526   C909.321838,35.875889 909.871887,39.850521 908.515076,43.879116   C907.085571,48.123726 903.971985,51.246563 899.612000,50.692249   C896.274902,50.267994 892.528870,48.283886 890.205261,45.822544   C886.997742,42.425056 888.077942,38.000313 890.484741,34.200764   C891.179688,33.103626 892.305176,32.279213 893.603638,31.189501  z"
   id="path202" />
<path
   fill="#FDFCF9"
   opacity="1.000000"
   stroke="none"
   d=" M406.812378,130.310760   C404.354767,135.284744 400.801514,138.534897 395.469116,137.756516   C391.354614,137.155930 388.097168,134.799698 386.906494,130.124619   C385.518677,124.675354 388.603729,118.199852 393.975403,117.190376   C399.885742,116.079674 405.597473,118.624138 406.925964,125.929375   C407.159790,127.215034 406.925201,128.585876 406.812378,130.310760  z"
   id="path204" />
<path
   fill="#FDFCF9"
   opacity="1.000000"
   stroke="none"
   d=" M597.895508,126.298477   C597.642578,134.342926 593.064941,137.112732 588.478943,137.854996   C584.748413,138.458771 579.491272,135.278259 577.685059,130.509827   C575.396301,124.467262 580.105652,118.883934 584.643433,117.260437   C589.652100,115.468452 595.149719,118.699715 597.046387,124.142494   C597.258301,124.750435 597.603333,125.311951 597.895508,126.298477  z"
   id="path206" />
<path
   fill="#FDFCFA"
   opacity="1.000000"
   stroke="none"
   d=" M692.993896,127.924789   C693.158875,121.030304 696.767761,117.187057 702.794678,117.061417   C708.644104,116.939461 712.600220,120.911934 713.072144,126.582542   C713.748108,134.705368 708.426575,137.264191 703.623718,137.905838   C697.933960,138.666000 693.524353,134.429062 692.993896,127.924789  z"
   id="path208" />
<path
   fill="#FDFCFA"
   opacity="1.000000"
   stroke="none"
   d=" M1094.804688,119.799957   C1099.705566,116.890411 1104.325195,115.179459 1108.929199,119.547714   C1112.750122,123.172951 1113.334473,130.541336 1110.100342,134.274063   C1106.693970,138.205582 1100.731323,139.125351 1096.874268,136.294113   C1092.731445,133.253189 1089.501465,127.418457 1093.942627,121.417847   C1094.224243,121.037560 1094.334229,120.530388 1094.804688,119.799957  z"
   id="path210" />
<path
   fill="#C4B38F"
   opacity="1.000000"
   stroke="none"
   d=" M1029.537354,39.084358   C1029.937744,68.635223 1029.958130,98.412071 1029.947876,128.665237   C1029.599487,128.463425 1029.003296,127.785110 1029.003784,127.107162   C1029.021606,97.841545 1029.092651,68.575951 1029.537354,39.084358  z"
   id="path212" />
<path
   fill="#C4B38F"
   opacity="1.000000"
   stroke="none"
   d=" M466.466217,128.917603   C466.065521,99.365280 466.046143,69.587448 466.055664,39.333164   C466.389221,39.540054 466.960144,40.223454 466.960022,40.906738   C466.954315,70.168518 466.897858,99.430298 466.466217,128.917603  z"
   id="path214" />
<path
   fill="#DED8B2"
   opacity="1.000000"
   stroke="none"
   d=" M131.541809,39.166763   C131.936279,68.668869 131.956284,98.391884 131.946304,128.584534   C131.612106,128.371353 131.041687,127.688454 131.041931,127.005753   C131.051971,97.799713 131.112762,68.593697 131.541809,39.166763  z"
   id="path216" />
<path
   fill="#DED8B2"
   opacity="1.000000"
   stroke="none"
   d=" M25.542576,40.167721   C25.937027,69.002861 25.956430,98.057999 25.946766,127.582733   C25.613014,127.370232 25.041792,126.688042 25.042028,126.006058   C25.051907,97.466606 25.112902,68.927162 25.542576,40.167721  z"
   id="path218" />
<path
   fill="#DED8B2"
   opacity="1.000000"
   stroke="none"
   d=" M46.457405,127.832283   C46.174515,116.217400 46.266674,104.382523 46.662491,92.252892   C46.921589,103.842857 46.877022,115.727570 46.457405,127.832283  z"
   id="path220" />
<path
   fill="#C4B38F"
   opacity="1.000000"
   stroke="none"
   d=" M344.463837,129.915680   C344.201324,120.289841 344.318512,110.437439 344.761688,100.330093   C345.006287,109.946465 344.924896,119.817795 344.463837,129.915680  z"
   id="path222" />
<path
   fill="#C5B590"
   opacity="1.000000"
   stroke="none"
   d=" M859.589355,65.709015   C859.332458,65.046974 858.106262,64.247078 858.092407,63.426777   C857.954468,55.224583 858.016052,47.019062 858.052124,38.338520   C858.386597,40.015865 858.903625,42.164139 858.954651,44.323425   C859.121887,51.400688 859.119812,58.481953 859.589355,65.709015  z"
   id="path224" />
<path
   fill="#DED8B2"
   opacity="1.000000"
   stroke="none"
   d=" M535.457275,128.832458   C535.185547,119.559006 535.288818,110.065529 535.724854,100.325043   C535.982544,109.589508 535.907410,119.100967 535.457275,128.832458  z"
   id="path226" />

<path
   fill="#D4CAA5"
   opacity="1.000000"
   stroke="none"
   d=" M70.603600,48.548370   C63.155228,48.794483 55.383537,48.794483 47.322453,48.794483   C47.322453,56.995770 47.322453,64.706139 47.322453,73.192467   C54.817390,73.192467 62.374374,73.192467 70.382507,73.247772   C63.391972,73.510925 55.950077,73.812714 48.508869,73.796600   C47.667728,73.794777 46.135788,72.023697 46.103642,71.034698   C45.887608,64.388138 45.840782,57.724445 46.140781,51.084454   C46.189522,50.005634 48.210548,48.156605 49.357178,48.127441   C56.325558,47.950222 63.304718,48.197018 70.603600,48.548370  z"
   id="path230" />

<path
   fill="#DED8B2"
   opacity="1.000000"
   stroke="none"
   d=" M535.723145,50.327560   C536.036255,60.419468 536.016357,70.758896 535.981689,81.571106   C535.645203,79.990730 535.047119,77.937126 535.050354,75.884499   C535.064087,67.447868 535.260742,59.011528 535.723145,50.327560  z"
   id="path234" />

<path
   fill="#C3B28E"
   opacity="1.000000"
   stroke="none"
   d=" M344.761719,50.332230   C345.061646,60.404541 345.034637,70.731544 345.033447,81.526688   C344.707794,80.953011 344.046478,79.909203 344.053162,78.869713   C344.114014,69.441681 344.291504,60.014412 344.761719,50.332230  z"
   id="path238" />


</svg>
